<svg width="70" height="70" viewBox="0 0 70 70" fill="none" xmlns="http://www.w3.org/2000/svg">
<path d="M35 16.0417C37.7074 16.0417 40.3039 17.1173 42.2184 19.0317C44.1328 20.9461 45.2083 23.5427 45.2083 26.2501C45.2083 28.9575 44.1328 31.554 42.2184 33.4685C40.3039 35.3829 37.7074 36.4584 35 36.4584C32.2926 36.4584 29.6961 35.3829 27.7816 33.4685C25.8672 31.554 24.7917 28.9575 24.7917 26.2501C24.7917 23.5427 25.8672 20.9461 27.7816 19.0317C29.6961 17.1173 32.2926 16.0417 35 16.0417M14.5833 23.3334C16.2167 23.3334 17.7333 23.7709 19.0458 24.5584C18.6083 28.7292 19.8333 32.8709 22.3417 36.1084C20.8833 38.9084 17.9667 40.8334 14.5833 40.8334C12.2627 40.8334 10.0371 39.9115 8.39615 38.2706C6.75521 36.6297 5.83333 34.4041 5.83333 32.0834C5.83333 29.7628 6.75521 27.5372 8.39615 25.8962C10.0371 24.2553 12.2627 23.3334 14.5833 23.3334M55.4167 23.3334C57.7373 23.3334 59.9629 24.2553 61.6039 25.8962C63.2448 27.5372 64.1667 29.7628 64.1667 32.0834C64.1667 34.4041 63.2448 36.6297 61.6039 38.2706C59.9629 39.9115 57.7373 40.8334 55.4167 40.8334C52.0333 40.8334 49.1167 38.9084 47.6583 36.1084C50.2013 32.8255 51.3817 28.689 50.9542 24.5584C52.2667 23.7709 53.7833 23.3334 55.4167 23.3334M16.0417 53.2292C16.0417 47.1917 24.5292 42.2917 35 42.2917C45.4708 42.2917 53.9583 47.1917 53.9583 53.2292V58.3334H16.0417V53.2292ZM0 58.3334V53.9584C0 49.9042 5.5125 46.4917 12.9792 45.5001C11.2583 47.4834 10.2083 50.2251 10.2083 53.2292V58.3334H0ZM70 58.3334H59.7917V53.2292C59.7917 50.2251 58.7417 47.4834 57.0208 45.5001C64.4875 46.4917 70 49.9042 70 53.9584V58.3334Z" fill="#30A3FF"/>
</svg>
