<svg width="70" height="70" viewBox="0 0 70 70" fill="none" xmlns="http://www.w3.org/2000/svg">
<path d="M35 17.4999C33.3958 17.4999 32.023 16.9283 30.8816 15.7849C29.7383 14.6435 29.1666 13.2708 29.1666 11.6666C29.1666 10.0624 29.7383 8.68867 30.8816 7.54533C32.023 6.40395 33.3958 5.83325 35 5.83325C36.6041 5.83325 37.9779 6.40395 39.1212 7.54533C40.2626 8.68867 40.8333 10.0624 40.8333 11.6666C40.8333 13.2708 40.2626 14.6435 39.1212 15.7849C37.9779 16.9283 36.6041 17.4999 35 17.4999ZM29.1666 64.1666C28.3402 64.1666 27.648 63.8866 27.09 63.3266C26.53 62.7685 26.25 62.0763 26.25 61.2499V25.5937C22.3611 24.5728 19.1654 22.5438 16.6629 19.5066C14.1584 16.4674 12.5902 13.0034 11.9583 9.1145C11.8125 8.2395 12.0439 7.47339 12.6525 6.81617C13.2591 6.16089 14.0486 5.83325 15.0208 5.83325C15.7014 5.83325 16.2973 6.07631 16.8087 6.56242C17.3182 7.04853 17.6215 7.63186 17.7187 8.31242C18.2534 11.7638 19.7604 14.6435 22.2396 16.9516C24.7187 19.2616 27.7569 20.4166 31.3541 20.4166H38.6458C40.1041 20.4166 41.4652 20.6839 42.7291 21.2187C43.993 21.7534 45.1354 22.5312 46.1562 23.552L57.3125 34.7082C57.8472 35.243 58.1145 35.9235 58.1145 36.7499C58.1145 37.5763 57.8472 38.2569 57.3125 38.7916C56.7777 39.3263 56.0972 39.5937 55.2708 39.5937C54.4444 39.5937 53.7639 39.3263 53.2291 38.7916L43.75 29.3124V61.2499C43.75 62.0763 43.4709 62.7685 42.9129 63.3266C42.3529 63.8866 41.6597 64.1666 40.8333 64.1666C40.0069 64.1666 39.3147 63.8866 38.7566 63.3266C38.1966 62.7685 37.9166 62.0763 37.9166 61.2499V46.6666H32.0833V61.2499C32.0833 62.0763 31.8043 62.7685 31.2462 63.3266C30.6862 63.8866 29.993 64.1666 29.1666 64.1666Z" fill="#30A3FF"/>
</svg>
