<svg width="70" height="70" viewBox="0 0 70 70" fill="none" xmlns="http://www.w3.org/2000/svg">
<path d="M8.75 61.25V55.4167H14.5833V14.5833C14.5833 12.9792 15.155 11.6054 16.2983 10.4621C17.4397 9.32069 18.8125 8.75 20.4167 8.75H49.5833C51.1875 8.75 52.5613 9.32069 53.7046 10.4621C54.846 11.6054 55.4167 12.9792 55.4167 14.5833V55.4167H61.25V61.25H8.75ZM43.75 55.4167H49.5833V14.5833H36.4583V11.375C38.5972 11.7639 40.3472 12.7604 41.7083 14.3646C43.0694 15.9688 43.75 17.8403 43.75 19.9792V55.4167ZM32.0833 37.9167C32.9097 37.9167 33.6029 37.6367 34.1629 37.0767C34.721 36.5186 35 35.8264 35 35C35 34.1736 34.721 33.4804 34.1629 32.9204C33.6029 32.3624 32.9097 32.0833 32.0833 32.0833C31.2569 32.0833 30.5647 32.3624 30.0067 32.9204C29.4467 33.4804 29.1667 34.1736 29.1667 35C29.1667 35.8264 29.4467 36.5186 30.0067 37.0767C30.5647 37.6367 31.2569 37.9167 32.0833 37.9167Z" fill="#30A3FF"/>
</svg>
