<svg width="70" height="70" viewBox="0 0 70 70" fill="none" xmlns="http://www.w3.org/2000/svg">
<path d="M34.9999 5.83325C18.8999 5.83325 5.83325 18.8999 5.83325 34.9999C5.83325 51.0999 18.8999 64.1666 34.9999 64.1666C51.0999 64.1666 64.1666 51.0999 64.1666 34.9999C64.1666 18.8999 51.0999 5.83325 34.9999 5.83325ZM56.7582 26.5999L48.6499 29.9541C47.9194 27.9886 46.7721 26.2045 45.2869 24.7243C43.8017 23.2442 42.0137 22.1029 40.0457 21.3791L43.3999 13.2708C49.5249 15.6041 54.3957 20.4749 56.7582 26.5999V26.5999ZM34.9999 43.7499C30.1583 43.7499 26.2499 39.8416 26.2499 34.9999C26.2499 30.1583 30.1583 26.2499 34.9999 26.2499C39.8416 26.2499 43.7499 30.1583 43.7499 34.9999C43.7499 39.8416 39.8416 43.7499 34.9999 43.7499ZM26.6291 13.2416L30.0416 21.3499C28.0504 22.0756 26.2413 23.2264 24.7403 24.7225C23.2392 26.2185 22.0822 28.0237 21.3499 30.0124L13.2416 26.6291C14.4111 23.5845 16.2072 20.8196 18.5134 18.5134C20.8196 16.2072 23.5845 14.4111 26.6291 13.2416V13.2416ZM13.2416 43.3707L21.3499 40.0166C22.0771 42.0001 23.2293 43.8006 24.7257 45.292C26.2221 46.7833 28.0265 47.9294 30.0124 48.6499L26.5999 56.7582C23.5619 55.5834 20.8036 53.7851 18.5028 51.4793C16.2021 49.1736 14.4098 46.4114 13.2416 43.3707V43.3707ZM43.3999 56.7582L40.0457 48.6499C42.0229 47.9174 43.8168 46.763 45.3026 45.267C46.7885 43.7711 47.9308 41.9695 48.6499 39.9874L56.7582 43.3999C55.5849 46.4341 53.7905 49.1897 51.4901 51.4901C49.1897 53.7905 46.4341 55.5849 43.3999 56.7582V56.7582Z" fill="#30A3FF"/>
</svg>
