<svg width="110" height="18" viewBox="0 0 110 18" fill="none" xmlns="http://www.w3.org/2000/svg">
<path d="M0 17.6327V0H7.11263C7.27999 0 7.49516 0.00816316 7.75815 0.0244895C8.02114 0.0326531 8.2642 0.0571431 8.48734 0.0979594C9.48351 0.253061 10.3044 0.591836 10.9499 1.11429C11.6034 1.63673 12.0855 2.29796 12.3963 3.09796C12.7151 3.8898 12.8745 4.77143 12.8745 5.74286C12.8745 6.70612 12.7151 7.58775 12.3963 8.38775C12.0775 9.17959 11.5914 9.83673 10.9379 10.3592C10.2924 10.8816 9.47554 11.2204 8.48734 11.3755C8.2642 11.4082 8.01715 11.4327 7.7462 11.449C7.48321 11.4653 7.27202 11.4735 7.11263 11.4735H2.88092V17.6327H0ZM2.88092 8.71837H6.99309C7.15248 8.71837 7.33179 8.7102 7.53102 8.69388C7.73026 8.67755 7.91355 8.6449 8.08091 8.59592C8.55907 8.47347 8.93363 8.25714 9.20458 7.94694C9.48351 7.63673 9.67876 7.28571 9.79033 6.89388C9.90987 6.50204 9.96964 6.11837 9.96964 5.74286C9.96964 5.36735 9.90987 4.98367 9.79033 4.59184C9.67876 4.19184 9.48351 3.83673 9.20458 3.52653C8.93363 3.21633 8.55907 3 8.08091 2.87755C7.91355 2.82857 7.73026 2.8 7.53102 2.79184C7.33179 2.77551 7.15248 2.76735 6.99309 2.76735H2.88092V8.71837Z" fill="#073F6D"/>
<path d="M18.5526 18C17.6202 18 16.8312 17.8204 16.1857 17.4612C15.5402 17.0939 15.0501 16.6082 14.7154 16.0041C14.3886 15.4 14.2253 14.7347 14.2253 14.0082C14.2253 13.3714 14.3289 12.8 14.5361 12.2939C14.7433 11.7796 15.062 11.3388 15.4924 10.9714C15.9227 10.5959 16.4806 10.2898 17.166 10.0531C17.684 9.88163 18.2896 9.72653 18.983 9.58775C19.6843 9.44898 20.4413 9.32245 21.2542 9.20816C22.0751 9.08571 22.9318 8.9551 23.8243 8.81633L22.7963 9.41633C22.8043 8.50204 22.605 7.82857 22.1986 7.39592C21.7922 6.96326 21.1068 6.74694 20.1425 6.74694C19.5607 6.74694 18.9989 6.88571 18.457 7.16326C17.9151 7.44082 17.5365 7.91837 17.3214 8.59592L14.6915 7.75102C15.0102 6.63265 15.6159 5.73469 16.5085 5.05714C17.409 4.37959 18.6204 4.04082 20.1425 4.04082C21.2901 4.04082 22.2982 4.23265 23.1669 4.61633C24.0435 5 24.693 5.62857 25.1154 6.50204C25.3465 6.96735 25.4859 7.4449 25.5338 7.93469C25.5816 8.41633 25.6055 8.94286 25.6055 9.51428V17.6327H23.0832V14.7673L23.5016 15.2327C22.9198 16.1878 22.2384 16.8898 21.4574 17.3388C20.6844 17.7796 19.7161 18 18.5526 18ZM19.1264 15.649C19.7799 15.649 20.3377 15.5306 20.8 15.2939C21.2622 15.0571 21.6288 14.7673 21.8997 14.4245C22.1787 14.0816 22.3659 13.7592 22.4616 13.4571C22.613 13.0816 22.6967 12.6531 22.7126 12.1714C22.7365 11.6816 22.7485 11.2857 22.7485 10.9837L23.6331 11.2531C22.7644 11.3918 22.0193 11.5143 21.3977 11.6204C20.7761 11.7265 20.2421 11.8286 19.7958 11.9265C19.3495 12.0163 18.9551 12.1184 18.6124 12.2327C18.2777 12.3551 17.9948 12.498 17.7637 12.6612C17.5325 12.8245 17.3532 13.0122 17.2257 13.2245C17.1062 13.4367 17.0464 13.6857 17.0464 13.9714C17.0464 14.298 17.1261 14.5878 17.2855 14.8408C17.4449 15.0857 17.676 15.2816 17.9788 15.4286C18.2896 15.5755 18.6722 15.649 19.1264 15.649Z" fill="#073F6D"/>
<path d="M37.6473 17.6327V11.2653C37.6473 10.849 37.6194 10.3878 37.5636 9.88163C37.5078 9.37551 37.3763 8.8898 37.1691 8.42449C36.9699 7.95102 36.667 7.56326 36.2606 7.26122C35.8621 6.95918 35.3202 6.80816 34.6349 6.80816C34.2683 6.80816 33.9057 6.86939 33.547 6.99184C33.1884 7.11428 32.8617 7.32653 32.5668 7.62857C32.2799 7.92245 32.0488 8.33061 31.8735 8.85306C31.6982 9.36735 31.6105 10.0286 31.6105 10.8367L29.9011 10.0898C29.9011 8.96327 30.1123 7.94286 30.5346 7.02857C30.965 6.11429 31.5946 5.38775 32.4234 4.84898C33.2522 4.30204 34.2723 4.02857 35.4836 4.02857C36.4399 4.02857 37.2289 4.19184 37.8505 4.51837C38.4721 4.8449 38.9662 5.26122 39.3328 5.76735C39.6994 6.27347 39.9703 6.81224 40.1457 7.38367C40.321 7.9551 40.4326 8.49796 40.4804 9.01224C40.5362 9.51837 40.564 9.93061 40.564 10.249V17.6327H37.6473ZM28.6937 17.6327V4.40816H31.2638V8.5102H31.6105V17.6327H28.6937Z" fill="#073F6D"/>
<path d="M51.2504 17.6327C50.3976 17.7959 49.5609 17.8653 48.74 17.8408C47.9272 17.8245 47.198 17.6735 46.5524 17.3878C45.9069 17.0939 45.4168 16.6327 45.0821 16.0041C44.7872 15.4327 44.6318 14.849 44.6159 14.2531C44.6 13.6571 44.592 12.9837 44.592 12.2327V0.734693H47.4609V12.0612C47.4609 12.5918 47.4649 13.0571 47.4729 13.4571C47.4888 13.8571 47.5725 14.1837 47.7239 14.4367C48.0108 14.9265 48.4691 15.2 49.0986 15.2571C49.7282 15.3143 50.4455 15.2816 51.2504 15.1592V17.6327ZM42.249 6.72245V4.40816H51.2504V6.72245H42.249Z" fill="#073F6D"/>
<path d="M62.9561 17.6327V11.2653C62.9561 10.849 62.9282 10.3878 62.8725 9.88163C62.8167 9.37551 62.6852 8.8898 62.478 8.42449C62.2787 7.95102 61.9759 7.56326 61.5695 7.26122C61.171 6.95918 60.6291 6.80816 59.9437 6.80816C59.5771 6.80816 59.2145 6.86939 58.8559 6.99184C58.4973 7.11428 58.1706 7.32653 57.8757 7.62857C57.5888 7.92245 57.3577 8.33061 57.1824 8.85306C57.007 9.36735 56.9194 10.0286 56.9194 10.8367L55.2099 10.0898C55.2099 8.96327 55.4211 7.94286 55.8435 7.02857C56.2739 6.11429 56.9034 5.38775 57.7322 4.84898C58.5611 4.30204 59.5811 4.02857 60.7925 4.02857C61.7488 4.02857 62.5377 4.19184 63.1594 4.51837C63.781 4.8449 64.2751 5.26122 64.6417 5.76735C65.0082 6.27347 65.2792 6.81224 65.4545 7.38367C65.6299 7.9551 65.7414 8.49796 65.7892 9.01224C65.845 9.51837 65.8729 9.93061 65.8729 10.249V17.6327H62.9561ZM54.0026 17.6327V0H56.5727V9.28163H56.9194V17.6327H54.0026Z" fill="#073F6D"/>
<path d="M74.8618 18C73.5548 18 72.4072 17.7102 71.419 17.1306C70.4308 16.551 69.6578 15.7469 69.0999 14.7184C68.5501 13.6898 68.2751 12.5061 68.2751 11.1673C68.2751 9.72245 68.5461 8.46939 69.088 7.40816C69.6299 6.33878 70.383 5.5102 71.3473 4.92245C72.3116 4.33469 73.4273 4.04082 74.6944 4.04082C76.0333 4.04082 77.1689 4.36327 78.1013 5.00816C79.0417 5.6449 79.739 6.54694 80.1933 7.71428C80.6475 8.88163 80.8188 10.2571 80.7073 11.8408H77.8503V10.7633C77.8423 9.32653 77.5953 8.27755 77.1091 7.61633C76.623 6.9551 75.8579 6.62449 74.814 6.62449C73.6345 6.62449 72.7579 7 72.1841 7.75102C71.6103 8.49388 71.3234 9.58367 71.3234 11.0204C71.3234 12.3592 71.6103 13.3959 72.1841 14.1306C72.7579 14.8653 73.5946 15.2327 74.6944 15.2327C75.4037 15.2327 76.0133 15.0735 76.5234 14.7551C77.0414 14.4286 77.4399 13.9592 77.7188 13.3469L80.5638 14.2286C80.0697 15.4204 79.3047 16.3469 78.2687 17.0082C77.2406 17.6694 76.105 18 74.8618 18ZM70.4149 11.8408V9.61224H79.2967V11.8408H70.4149Z" fill="#073F6D"/>
<path d="M89.0766 18C87.7855 18 86.6579 17.702 85.6936 17.1061C84.7293 16.5102 83.9802 15.6898 83.4462 14.6449C82.9203 13.5918 82.6573 12.3837 82.6573 11.0204C82.6573 9.63265 82.9282 8.41633 83.4701 7.37143C84.0121 6.32653 84.7652 5.5102 85.7295 4.92245C86.6937 4.33469 87.8094 4.04082 89.0766 4.04082C90.3756 4.04082 91.5072 4.33878 92.4715 4.93469C93.4358 5.53061 94.1849 6.3551 94.7189 7.40816C95.2528 8.45306 95.5198 9.65714 95.5198 11.0204C95.5198 12.3918 95.2488 13.6041 94.7069 14.6571C94.173 15.702 93.4238 16.5224 92.4596 17.1184C91.4953 17.7061 90.3676 18 89.0766 18ZM89.0766 15.2327C90.2242 15.2327 91.0769 14.8408 91.6347 14.0571C92.1926 13.2735 92.4715 12.2612 92.4715 11.0204C92.4715 9.73877 92.1886 8.71837 91.6228 7.95918C91.057 7.19184 90.2082 6.80816 89.0766 6.80816C88.3035 6.80816 87.666 6.98775 87.1639 7.34694C86.6698 7.69796 86.3032 8.19184 86.0642 8.82857C85.8251 9.45714 85.7055 10.1878 85.7055 11.0204C85.7055 12.302 85.9885 13.3265 86.5543 14.0939C87.1281 14.8531 87.9688 15.2327 89.0766 15.2327Z" fill="#073F6D"/>
<path d="M107.083 17.6327V11.2653C107.083 10.849 107.055 10.3878 107 9.88163C106.944 9.37551 106.812 8.8898 106.605 8.42449C106.406 7.95102 106.103 7.56326 105.697 7.26122C105.298 6.95918 104.756 6.80816 104.071 6.80816C103.704 6.80816 103.342 6.86939 102.983 6.99184C102.624 7.11428 102.298 7.32653 102.003 7.62857C101.716 7.92245 101.485 8.33061 101.309 8.85306C101.134 9.36735 101.046 10.0286 101.046 10.8367L99.337 10.0898C99.337 8.96327 99.5482 7.94286 99.9706 7.02857C100.401 6.11429 101.031 5.38775 101.859 4.84898C102.688 4.30204 103.708 4.02857 104.92 4.02857C105.876 4.02857 106.665 4.19184 107.286 4.51837C107.908 4.8449 108.402 5.26122 108.769 5.76735C109.135 6.27347 109.406 6.81224 109.582 7.38367C109.757 7.9551 109.869 8.49796 109.916 9.01224C109.972 9.51837 110 9.93061 110 10.249V17.6327H107.083ZM98.1297 17.6327V4.40816H100.7V8.5102H101.046V17.6327H98.1297Z" fill="#073F6D"/>
</svg>
