<svg width="24" height="24" viewBox="0 0 24 24" fill="none" xmlns="http://www.w3.org/2000/svg">
<g clip-path="url(#clip0_93_11)">
<path d="M12 0C8.81813 0 5.76375 1.26506 3.51562 3.51469C1.26518 5.76521 0.000623381 8.81734 0 12C0 15.1813 1.26562 18.2357 3.51562 20.4853C5.76375 22.7349 8.81813 24 12 24C15.1819 24 18.2363 22.7349 20.4844 20.4853C22.7344 18.2357 24 15.1813 24 12C24 8.81869 22.7344 5.76431 20.4844 3.51469C18.2363 1.26506 15.1819 0 12 0Z" fill="url(#paint0_linear_93_11)"/>
<path d="M5.4319 11.8732C8.93065 10.3492 11.2632 9.34442 12.4294 8.85898C15.7632 7.47279 16.455 7.23204 16.9069 7.22389C17.0063 7.22229 17.2275 7.24686 17.3719 7.36357C17.4919 7.46201 17.5257 7.59514 17.5425 7.68861C17.5575 7.78198 17.5782 7.99479 17.5613 8.16092C17.3813 10.0584 16.5994 14.663 16.2019 16.7884C16.035 17.6876 15.7032 17.9891 15.3825 18.0185C14.685 18.0827 14.1563 17.558 13.4813 17.1157C12.4257 16.4233 11.8294 15.9924 10.8038 15.3169C9.61878 14.5361 10.3875 14.1069 11.0625 13.4057C11.2388 13.2221 14.31 10.4293 14.3682 10.176C14.3757 10.1443 14.3832 10.0262 14.3119 9.96392C14.2425 9.90148 14.1394 9.92286 14.0644 9.93973C13.9575 9.96373 12.2719 11.079 9.0019 13.2853C8.52378 13.6142 8.09065 13.7745 7.70065 13.766C7.27315 13.7569 6.44815 13.5238 5.83503 13.3247C5.08503 13.0804 4.4869 12.9512 4.5394 12.5362C4.56565 12.3202 4.86378 12.0992 5.4319 11.8732V11.8732Z" fill="white"/>
</g>
<defs>
<linearGradient id="paint0_linear_93_11" x1="12" y1="0" x2="12" y2="24" gradientUnits="userSpaceOnUse">
<stop stop-color="#2AABEE"/>
<stop offset="1" stop-color="#229ED9"/>
</linearGradient>
<clipPath id="clip0_93_11">
<rect width="24" height="24" fill="white"/>
</clipPath>
</defs>
</svg>
