<svg width="24" height="24" viewBox="0 0 24 24" fill="none" xmlns="http://www.w3.org/2000/svg">
<g clip-path="url(#clip0_93_14)">
<path d="M0.0979432 11.6441C0.0973726 13.6962 0.635965 15.6998 1.66009 17.4659L0 23.5L6.20294 21.8809C7.91859 22.8107 9.84086 23.2979 11.7943 23.298H11.7994C18.248 23.298 23.4972 18.0741 23.5 11.6533C23.5012 8.54196 22.2852 5.61626 20.0759 3.41512C17.8669 1.21417 14.9291 0.00141997 11.7989 0C5.3496 0 0.100701 5.22359 0.0980383 11.6441" fill="url(#paint0_linear_93_14)"/>
<path d="M9.05083 6.55746C8.82964 6.0274 8.59687 6.0167 8.38653 6.00741C8.21429 5.99941 8.01739 6.00001 7.82067 6.00001C7.62377 6.00001 7.30386 6.07987 7.03345 6.39823C6.76275 6.71689 6 7.48695 6 9.05315C6 10.6194 7.05801 12.1331 7.2055 12.3457C7.35318 12.5579 9.24801 15.8748 12.249 17.1508C14.743 18.2113 15.2506 18.0004 15.7919 17.9472C16.3332 17.8942 17.5387 17.1773 17.7847 16.434C18.0308 15.6907 18.0308 15.0536 17.957 14.9204C17.8832 14.7878 17.6863 14.7081 17.3911 14.549C17.0957 14.3898 15.6442 13.6196 15.3736 13.5134C15.1029 13.4072 14.9061 13.3542 14.7092 13.673C14.5123 13.9912 13.9469 14.7081 13.7746 14.9204C13.6024 15.1332 13.4301 15.1597 13.1349 15.0005C12.8395 14.8408 11.8886 14.505 10.7605 13.4206C9.88284 12.5768 9.29028 11.5347 9.11804 11.216C8.9458 10.8977 9.09959 10.7252 9.24764 10.5666C9.3803 10.4239 9.54299 10.1948 9.69076 10.009C9.83797 9.8231 9.8871 9.69046 9.98555 9.47816C10.0841 9.26565 10.0348 9.07974 9.96108 8.92051C9.8871 8.76128 9.31337 7.18698 9.05083 6.55756" fill="white"/>
</g>
<defs>
<linearGradient id="paint0_linear_93_14" x1="11.75" y1="23.5" x2="11.75" y2="0" gradientUnits="userSpaceOnUse">
<stop stop-color="#1FAF38"/>
<stop offset="1" stop-color="#60D669"/>
</linearGradient>
<clipPath id="clip0_93_14">
<rect width="23.814" height="24" fill="white"/>
</clipPath>
</defs>
</svg>
